<svg id="Group_5614" data-name="Group 5614" xmlns="http://www.w3.org/2000/svg" width="73.442" height="73.438" viewBox="0 0 73.442 73.438">
  <g id="Group_64" data-name="Group 64" transform="translate(0 0)">
    <g id="Group_63" data-name="Group 63" transform="translate(2.582 2.579)">
      <g id="Group_62" data-name="Group 62" transform="translate(0.682 0.682)">
        <circle id="Ellipse_7" data-name="Ellipse 7" cx="33.5" cy="33.5" r="33.5" transform="translate(0.208 -0.262)" fill="#f8f8f8"></circle>
      </g>
      <path id="Path_70" data-name="Path 70" d="M-678.86,854.279A34.178,34.178,0,0,1-713,820.14,34.178,34.178,0,0,1-678.86,786a34.178,34.178,0,0,1,34.14,34.14,34.178,34.178,0,0,1-34.14,34.14Zm0-67.705a33.6,33.6,0,0,0-33.568,33.566,33.6,33.6,0,0,0,33.566,33.566A33.6,33.6,0,0,0-645.3,820.139a33.6,33.6,0,0,0-33.563-33.568Z" transform="translate(713 -786)" fill="#2b273d"></path>
    </g>
    <path id="Path_71" data-name="Path 71" d="M-712.911,800.432a2.83,2.83,0,0,1,.408-.555,36.827,36.827,0,0,1,5.827-7.589,36.837,36.837,0,0,1,7.589-5.825,2.855,2.855,0,0,1,.515-.37,36.76,36.76,0,0,1,17.79-4.59,36.76,36.76,0,0,1,17.792,4.592,2.869,2.869,0,0,1,1.115,3.9,2.868,2.868,0,0,1-2.512,1.478,2.85,2.85,0,0,1-1.387-.36,31,31,0,0,0-15.007-3.87,31.087,31.087,0,0,0-8.185,1.108,2.851,2.851,0,0,1-.3.122,30.993,30.993,0,0,0-13.346,7.875,31,31,0,0,0-7.875,13.347,2.879,2.879,0,0,1-.225.554,31.093,31.093,0,0,0-1.049,7.978,31,31,0,0,0,3.87,15.007,2.869,2.869,0,0,1-1.116,3.9,2.856,2.856,0,0,1-1.387.361,2.868,2.868,0,0,1-2.511-1.478,36.753,36.753,0,0,1-4.59-17.789,36.763,36.763,0,0,1,4.593-17.8Z" transform="translate(717.5 -781.503)" fill="#2b273d"></path>
    <path id="Path_72" data-name="Path 72" d="M-682.748,858.322a31.009,31.009,0,0,0,14.967,3.848,31.016,31.016,0,0,0,15.012-3.873,2.824,2.824,0,0,1,.435-.187,31.081,31.081,0,0,0,6.533-4.985,31.086,31.086,0,0,0,4.787-6.177,2.879,2.879,0,0,1,.241-.567,30.992,30.992,0,0,0,3.975-15.194,31,31,0,0,0-3.87-15.007,2.869,2.869,0,0,1,1.116-3.9,2.867,2.867,0,0,1,3.9,1.116,36.752,36.752,0,0,1,4.59,17.79,36.83,36.83,0,0,1-1.248,9.493,2.858,2.858,0,0,1-.1.677,36.753,36.753,0,0,1-9.334,15.825,36.737,36.737,0,0,1-16.071,9.4,2.871,2.871,0,0,1-.541.091,36.843,36.843,0,0,1-9.427,1.231,36.764,36.764,0,0,1-17.745-4.565,2.869,2.869,0,0,1-1.121-3.9,2.869,2.869,0,0,1,3.9-1.12Z" transform="translate(704.503 -794.468)" fill="#2b273d"></path>
  </g>
  <g id="Group_65" data-name="Group 65" transform="translate(18.648 20.515)">
    <path id="Path_73" data-name="Path 73" d="M-683.13,842.188a1.865,1.865,0,0,0,1.322-.548l10.519-10.519,4.287,4.286a1.87,1.87,0,0,0,2.645,0h0l11.766-11.765v4.21a1.869,1.869,0,0,0,1.865,1.871,1.87,1.87,0,0,0,1.87-1.87v-8.725a1.87,1.87,0,0,0-1.87-1.87h-8.725a1.87,1.87,0,0,0-1.87,1.87,1.869,1.869,0,0,0,1.87,1.87h4.211l-10.445,10.445-4.287-4.287a1.87,1.87,0,0,0-2.645,0h0L-684.452,839a1.87,1.87,0,0,0,0,2.644,1.868,1.868,0,0,0,1.323.545Z" transform="translate(685 -817.259)" fill="#ff4650" stroke="#2b273d" stroke-miterlimit="10" stroke-width="1"></path>
    <path id="Path_74" data-name="Path 74" d="M-650.723,867.224H-683.13a1.87,1.87,0,0,0-1.87,1.87,1.869,1.869,0,0,0,1.87,1.87h32.408a1.869,1.869,0,0,0,1.87-1.87,1.87,1.87,0,0,0-1.87-1.87Z" transform="translate(685 -838.555)" fill="#69a0f9" stroke="#2b273d" stroke-miterlimit="10" stroke-width="1"></path>
  </g>
</svg>
