<svg xmlns="http://www.w3.org/2000/svg" width="76.428" height="73.5" viewBox="0 0 76.428 73.5">
  <g id="Group_5371" data-name="Group 5371" transform="translate(0)">
    <circle id="Ellipse_1" data-name="Ellipse 1" cx="35" cy="35" r="35" transform="translate(3.288 3)" fill="#f8f8f8" stroke="#2b273d" stroke-miterlimit="10" stroke-width="1"></circle>
    <g id="Group_9" data-name="Group 9" transform="translate(0 0)">
      <path id="Path_9" data-name="Path 9" d="M-321.543,206.911a2.97,2.97,0,0,1-1.843-.638A38.018,38.018,0,0,1-338,176.214,38.257,38.257,0,0,1-299.786,138a38.257,38.257,0,0,1,38.214,38.214,38.141,38.141,0,0,1-13.714,29.328,2.987,2.987,0,0,1-4.205-.375,2.986,2.986,0,0,1,.375-4.206,32.182,32.182,0,0,0,11.574-24.747,32.28,32.28,0,0,0-32.243-32.243,32.28,32.28,0,0,0-32.243,32.243,32.081,32.081,0,0,0,12.334,25.364,2.985,2.985,0,0,1,.5,4.192,2.981,2.981,0,0,1-2.35,1.141Z" transform="translate(338 -138)" fill="#2b273d"></path>
      <path id="Path_10" data-name="Path 10" d="M-273.7,176.7a2.986,2.986,0,0,0,2.986-2.986v-.279a9.874,9.874,0,0,0-9.553-9.855V158.8a1.791,1.791,0,0,0-.525-1.271,1.791,1.791,0,0,0-1.271-.525,1.791,1.791,0,0,0-1.271.525,1.791,1.791,0,0,0-.525,1.271v4.777h-.279a9.882,9.882,0,0,0-9.874,9.874,9.883,9.883,0,0,0,5.834,9.007l4.317,1.936v12.623h-.279a3.9,3.9,0,0,1-3.9-3.9v-2.071a2.986,2.986,0,0,0-2.986-2.986A2.986,2.986,0,0,0-294,191.034v2.071a9.882,9.882,0,0,0,9.874,9.874h.279v4.18a1.791,1.791,0,0,0,.525,1.271,1.791,1.791,0,0,0,1.271.525,1.791,1.791,0,0,0,1.271-.525,1.791,1.791,0,0,0,.525-1.271v-4.2a9.874,9.874,0,0,0,9.553-9.855v-2.986a9.883,9.883,0,0,0-5.834-9.007l-3.72-1.668v-9.891a3.9,3.9,0,0,1,3.582,3.884v.279A2.986,2.986,0,0,0-273.7,176.7Zm-5.29,9.857a3.9,3.9,0,0,1,2.3,3.559v2.986a3.9,3.9,0,0,1-3.582,3.884v-11ZM-285.727,177a3.9,3.9,0,0,1-2.3-3.559,3.9,3.9,0,0,1,3.9-3.9h.279v8.3Z" transform="translate(320.275 -145.655)" fill="#ff4650" stroke="#2b273d" stroke-miterlimit="10" stroke-width="1"></path>
      <path id="Path_11" data-name="Path 11" d="M-314.719,192.292l1.3,4.005h4.212l-3.407,2.476,1.3,4.005-3.407-2.476-3.407,2.476,1.3-4.005-3.407-2.476h4.212Z" transform="translate(330.841 -159.874)" fill="#03902a" stroke="#2b273d" stroke-miterlimit="10" stroke-width="1"></path>
      <path id="Path_12" data-name="Path 12" d="M-241.72,192.292l1.3,4.005h4.212l-3.407,2.476,1.3,4.005-3.407-2.476-3.407,2.476,1.3-4.005-3.407-2.476h4.212Z" transform="translate(301.43 -159.874)" fill="#03902a" stroke="#2b273d" stroke-miterlimit="10" stroke-width="1"></path>
      <path id="Path_13" data-name="Path 13" d="M-308.4,247.242a1.563,1.563,0,0,1-.272,1.539,1.563,1.563,0,0,1-1.469.533l-4.994-.884-4.994-.884a1.563,1.563,0,0,1-1.2-1.005,1.563,1.563,0,0,1,.272-1.539l3.264-3.883,3.264-3.883a1.563,1.563,0,0,1,1.469-.533,1.563,1.563,0,0,1,1.2,1.006l1.732,4.766Z" transform="translate(331.319 -177.758)" fill="#2b273d"></path>
    </g>
  </g>
</svg>
