<svg xmlns="http://www.w3.org/2000/svg" width="76.04" height="73.44" viewBox="0 0 76.04 73.44">
  <g id="Group_5460" data-name="Group 5460" transform="translate(0)">
    <ellipse id="Ellipse_2" data-name="Ellipse 2" cx="33.852" cy="33.852" rx="33.852" ry="33.852" transform="translate(5.471 3.152)" fill="#f8f8f8"></ellipse>
    <g id="Group_10" data-name="Group 10" transform="translate(4.608 0)">
      <path id="Path_14" data-name="Path 14" d="M-959.288,211.944a36.829,36.829,0,0,1-34.543-24.236,2.868,2.868,0,0,1,1.723-3.672,2.867,2.867,0,0,1,2.193.1,2.866,2.866,0,0,1,1.479,1.622,31.075,31.075,0,0,0,29.147,20.447A31.018,31.018,0,0,0-928.3,175.222a31.018,31.018,0,0,0-30.984-30.984A31.091,31.091,0,0,0-988.4,164.591a2.868,2.868,0,0,1-3.679,1.714,2.868,2.868,0,0,1-1.619-1.484,2.867,2.867,0,0,1-.094-2.195,36.848,36.848,0,0,1,34.5-24.122,36.763,36.763,0,0,1,36.721,36.721,36.763,36.763,0,0,1-36.718,36.718Z" transform="translate(994.002 -138.504)" fill="#2b273d"></path>
    </g>
    <g id="Group_11" data-name="Group 11" transform="translate(0 31.361)">
      <path id="Path_15" data-name="Path 15" d="M-995.886,193.9l1.021,3.141a.341.341,0,0,0,.326.237h3.3a.341.341,0,0,1,.325.236.341.341,0,0,1-.125.382l-2.672,1.941a.34.34,0,0,0-.124.382l1.02,3.141a.342.342,0,0,1-.124.381.342.342,0,0,1-.4,0l-2.672-1.941a.341.341,0,0,0-.4,0l-2.673,1.941a.342.342,0,0,1-.4,0,.342.342,0,0,1-.125-.381l1.021-3.141a.341.341,0,0,0-.124-.382l-2.672-1.941a.341.341,0,0,1-.125-.382.341.341,0,0,1,.326-.236h3.3a.341.341,0,0,0,.326-.237l1.021-3.141a.341.341,0,0,1,.324-.233A.341.341,0,0,1-995.886,193.9Z" transform="translate(1001.818 -193.375)" fill="#f9b326"></path>
      <path id="Path_16" data-name="Path 16" d="M-993.356,203.879a.628.628,0,0,1-.37-.122l-2.672-1.941a.056.056,0,0,0-.064,0l-2.672,1.941a.619.619,0,0,1-.739,0,.619.619,0,0,1-.228-.7l1.02-3.14a.055.055,0,0,0-.02-.061l-2.672-1.941a.619.619,0,0,1-.228-.7.618.618,0,0,1,.6-.434h3.3a.055.055,0,0,0,.052-.038l1.02-3.141a.619.619,0,0,1,.6-.434.62.62,0,0,1,.6.434h0l1.02,3.141a.055.055,0,0,0,.052.038h3.3a.618.618,0,0,1,.6.434.618.618,0,0,1-.229.7l-2.672,1.941a.054.054,0,0,0-.021.061l1.021,3.142a.619.619,0,0,1-.228.7.627.627,0,0,1-.369.121Zm-3.073-2.647a.624.624,0,0,1,.37.121l2.672,1.941a.048.048,0,0,0,.064,0,.05.05,0,0,0,.02-.061l-1.021-3.142a.626.626,0,0,1,.229-.7l2.672-1.941a.049.049,0,0,0,.02-.061.049.049,0,0,0-.051-.038h-3.3a.627.627,0,0,1-.6-.434l-1.02-3.141h0c-.007-.021-.1-.021-.1,0l-1.02,3.141a.627.627,0,0,1-.6.434h-3.3a.05.05,0,0,0-.052.038.05.05,0,0,0,.02.061l2.672,1.941a.627.627,0,0,1,.228.7l-1.02,3.14a.05.05,0,0,0,.02.061.049.049,0,0,0,.064,0l2.672-1.941a.622.622,0,0,1,.37-.12Z" transform="translate(1002.032 -193.162)" fill="#2b273d"></path>
    </g>
    <g id="Group_19" data-name="Group 19" transform="translate(17.234 29.017)">
      <g id="Group_12" data-name="Group 12" transform="translate(6.435 1.956)">
        <path id="Path_17" data-name="Path 17" d="M-932.332,209.464c-.867-1.807-3.969-4.317-6.966-6.741-1.672-1.351-3.251-2.628-4.258-3.635a.921.921,0,0,0-.963-.215c-.62.225-1,.4-1.306.533a3.044,3.044,0,0,1-1.235.339.92.92,0,0,0-.674.4c-1.3,1.945-2.649,1.78-3.549,1.478-.287-.1-.339-.22-.366-.337-.193-.809.777-2.693,2.034-3.947,2.992-2.993,4.534-3.742,7.792-2.285,3.7,1.653,7.4,2.948,7.437,2.96a.919.919,0,0,0,.7-.04.919.919,0,0,0,.469-.527.922.922,0,0,0-.567-1.173c-.037-.012-3.667-1.281-7.29-2.9-4.221-1.887-6.537-.645-9.845,2.666-1.259,1.259-2.97,3.807-2.53,5.676a2.277,2.277,0,0,0,1.581,1.659,4.607,4.607,0,0,0,5.406-1.852,4.634,4.634,0,0,0,1.382-.438c.173-.077.376-.163.645-.276,1.053.988,2.474,2.139,3.971,3.346,2.707,2.189,5.775,4.67,6.465,6.106a1.079,1.079,0,0,1-.274,1.383,1.015,1.015,0,0,1-1.133.223.922.922,0,0,0-.995-.033.921.921,0,0,0-.443.889,1.111,1.111,0,0,1-.705,1.036,1.413,1.413,0,0,1-1.434.033.929.929,0,0,0-.956-.188.92.92,0,0,0-.589.774,1.749,1.749,0,0,1-1.086,1.41.97.97,0,0,1-1.056-.163.933.933,0,0,0-.841-.214.92.92,0,0,0-.646.58c-.035.091-.114.313-.979.313a5.3,5.3,0,0,1-2.255-.771c-.646-.425-4.7-3.448-8.2-6.379-.49-.415-1.342-1.306-2.093-2.086-.666-.7-1.275-1.327-1.589-1.592a.917.917,0,0,0-.672-.217.916.916,0,0,0-.626.325.921.921,0,0,0,.109,1.3c.285.245.837.824,1.447,1.46.821.858,1.669,1.745,2.24,2.224,3.427,2.869,7.547,5.968,8.368,6.507a7.059,7.059,0,0,0,3.264,1.071,3.166,3.166,0,0,0,2.089-.614,2.865,2.865,0,0,0,2.093-.022,3.622,3.622,0,0,0,1.916-1.769,3.558,3.558,0,0,0,2.311-.334,3.123,3.123,0,0,0,1.537-1.605,3.01,3.01,0,0,0,2.112-.756,2.926,2.926,0,0,0,.745-3.578Z" transform="translate(960.781 -192.487)" fill="#2b273d"></path>
      </g>
      <g id="Group_13" data-name="Group 13" transform="translate(9.204 3.682)">
        <path id="Path_18" data-name="Path 18" d="M-946.754,195.494h-8.284a.92.92,0,0,0-.92.921.921.921,0,0,0,.921.921h8.283a.921.921,0,0,0,.921-.921.921.921,0,0,0-.921-.92Z" transform="translate(955.958 -195.494)" fill="#2b273d"></path>
      </g>
      <g id="Group_14" data-name="Group 14" transform="translate(33.203 16.567)">
        <path id="Path_19" data-name="Path 19" d="M-909.753,218.359a.918.918,0,0,0-.587-.391.918.918,0,0,0-.691.14l-2.693,1.808a.92.92,0,0,0-.25,1.277.923.923,0,0,0,.765.408.912.912,0,0,0,.512-.156l2.693-1.808a.921.921,0,0,0,.39-.587.921.921,0,0,0-.14-.691Z" transform="translate(914.13 -217.951)" fill="#2b273d"></path>
      </g>
      <g id="Group_15" data-name="Group 15" transform="translate(24.85 15.647)">
        <path id="Path_20" data-name="Path 20" d="M-921.672,222.067c-.659-.519-3.606-3.536-5.428-5.436a.918.918,0,0,0-.645-.284.918.918,0,0,0-.657.257.919.919,0,0,0-.286.647.92.92,0,0,0,.258.659c.472.49,4.646,4.843,5.616,5.609a.917.917,0,0,0,.571.2.931.931,0,0,0,.725-.352.92.92,0,0,0,.193-.681A.92.92,0,0,0-921.672,222.067Z" transform="translate(928.688 -216.347)" fill="#2b273d"></path>
      </g>
      <g id="Group_16" data-name="Group 16" transform="translate(22.088 18.409)">
        <path id="Path_21" data-name="Path 21" d="M-927.4,225.966c-1.1-.882-3.873-3.826-4.5-4.506a.922.922,0,0,0-1.3-.055.922.922,0,0,0-.3.641.922.922,0,0,0,.243.664c.034.035,3.339,3.6,4.705,4.7a.921.921,0,0,0,.571.2.927.927,0,0,0,.72-.344.922.922,0,0,0,.2-.678.922.922,0,0,0-.339-.62Z" transform="translate(933.501 -221.162)" fill="#2b273d"></path>
      </g>
      <g id="Group_17" data-name="Group 17" transform="translate(18.404 20.247)">
        <path id="Path_22" data-name="Path 22" d="M-933.8,229.185c-1.313-1.107-4-3.965-4.523-4.527a.921.921,0,0,0-.644-.294.921.921,0,0,0-.662.25.921.921,0,0,0-.044,1.3c.755.809,3.325,3.533,4.682,4.678a.921.921,0,0,0,.593.217.922.922,0,0,0,.7-.326.921.921,0,0,0,.217-.672A.921.921,0,0,0-933.8,229.185Z" transform="translate(939.921 -224.364)" fill="#2b273d"></path>
      </g>
      <path id="Path_23" data-name="Path 23" d="M-961.241,191.171c-1.578-1.495-7.886-1.979-9.783-2.091a.912.912,0,0,0-.686.245A.92.92,0,0,0-972,190v16.565a.921.921,0,0,0,.92.92h5.523a.92.92,0,0,0,.875-.635c.135-.413,3.306-10.147,3.724-14.933a.918.918,0,0,0-.285-.742Zm-4.988,14.475h-3.93V190.985c2.958.234,6.15.742,7.31,1.306-.488,4.03-2.695,11.194-3.38,13.355Z" transform="translate(971.999 -189.078)" fill="#2b273d"></path>
      <g id="Group_18" data-name="Group 18" transform="translate(31.329 1.841)">
        <path id="Path_24" data-name="Path 24" d="M-905.468,192.286c-7.228,0-11.237,1.85-11.4,1.927a.915.915,0,0,0-.49.571.924.924,0,0,0,.1.747c1.137,1.832,4.7,12,5.386,14.486a.921.921,0,0,0,.888.676h5.523a.921.921,0,0,0,.921-.921V193.207a.92.92,0,0,0-.271-.653A.92.92,0,0,0-905.468,192.286Zm-.92,16.565h-3.917c-.872-2.842-3.45-10.254-4.887-13.317a29.966,29.966,0,0,1,8.8-1.4Z" transform="translate(917.399 -192.286)" fill="#2b273d"></path>
      </g>
    </g>
    <g id="Group_20" data-name="Group 20" transform="translate(27.26 13.44)">
      <path id="Path_25" data-name="Path 25" d="M-925.6,182.732a.909.909,0,0,0,.645-.267l6.229-6.23a.912.912,0,0,0,.267-.645.911.911,0,0,0-.267-.645.912.912,0,0,0-1.289,0l-6.23,6.23a.912.912,0,0,0-.267.645.912.912,0,0,0,.268.645.91.91,0,0,0,.646.267Z" transform="translate(942.586 -167.364)" fill="#ff4650"></path>
      <path id="Path_26" data-name="Path 26" d="M-948.028,182.466a.909.909,0,0,0,.645.267.91.91,0,0,0,.645-.267.911.911,0,0,0,.268-.645.912.912,0,0,0-.268-.645l-6.23-6.23a.911.911,0,0,0-1.289,0,.912.912,0,0,0-.268.645.912.912,0,0,0,.268.645Z" transform="translate(954.525 -167.364)" fill="#ff4650"></path>
      <path id="Path_27" data-name="Path 27" d="M-934.177,175.271a.911.911,0,0,0,.911-.912V169.2a.912.912,0,0,0-.911-.912.912.912,0,0,0-.911.912v5.156A.912.912,0,0,0-934.177,175.271Z" transform="translate(946.241 -164.642)" fill="#ff4650"></path>
      <path id="Path_28" data-name="Path 28" d="M-935.015,163.186a.916.916,0,0,0,.886.561.921.921,0,0,0,.822-.632.919.919,0,0,0-.312-1,.922.922,0,0,0-1.061-.034A.918.918,0,0,0-935.015,163.186Z" transform="translate(946.239 -161.929)" fill="#ff4650"></path>
    </g>
  </g>
</svg>
