<svg xmlns="http://www.w3.org/2000/svg" width="85.287" height="71.506" viewBox="0 0 85.287 71.506">
  <g id="Delivery_on_time" data-name="Delivery on time" transform="translate(0 0.177)">
    <path id="Path_1" d="M82.905,35.7A32.853,32.853,0,1,1,50.1,2.9V35.8h32.8Z" transform="translate(-0.507 -0.091)" fill="#f8f8f8"></path>
    <g id="Group_1" transform="translate(0 -0.177)">
      <path id="Path_2" d="M49.594,71.329H2.815a2.815,2.815,0,0,1,0-5.629h46.78A30.038,30.038,0,1,0,19.508,35.71a29.152,29.152,0,0,0,1.553,9.511,2.751,2.751,0,0,1-1.747,3.494,2.687,2.687,0,0,1-.873.1H11.161a2.815,2.815,0,1,1,0-5.629h3.591A35.676,35.676,0,1,1,57.261,70.358a34.569,34.569,0,0,1-7.667.971Z" transform="translate(0 0.177)" fill="#2b273d"></path>
    </g>
    <g id="Group_2" transform="translate(1.672 55.132)">
      <path id="Path_3" d="M21.158,5.532H2.815A2.735,2.735,0,0,1,0,2.815,2.817,2.817,0,0,1,2.815,0H21.158a2.817,2.817,0,0,1,2.815,2.815A2.735,2.735,0,0,1,21.158,5.532Z" fill="#2b273d"></path>
    </g>
    <g id="Group_5" transform="translate(46.777 7.242)">
      <g id="Group_3">
        <path id="Path_4" d="M2.815,8.929A2.817,2.817,0,0,1,0,6.114v-3.3a2.815,2.815,0,0,1,5.629,0h0v3.3A2.881,2.881,0,0,1,2.815,8.929Z" fill="#ff4650"></path>
      </g>
      <g id="Group_4" transform="translate(0 47.891)">
        <path id="Path_5" d="M2.815,8.929A2.817,2.817,0,0,1,0,6.114v-3.3a2.815,2.815,0,0,1,5.629,0h0v3.3A2.881,2.881,0,0,1,2.815,8.929Z" fill="#ff4650"></path>
      </g>
    </g>
    <g id="Group_7" transform="translate(21.161 32.857)">
      <path id="Path_6" d="M6.114,5.532h-3.3A2.735,2.735,0,0,1,0,2.815,2.817,2.817,0,0,1,2.815,0h3.3A2.817,2.817,0,0,1,8.929,2.815,2.735,2.735,0,0,1,6.114,5.532Z" fill="#ff4650"></path>
      <g id="Group_6" transform="translate(47.89)">
        <path id="Path_7" d="M6.114,5.532h-3.3A2.735,2.735,0,0,1,0,2.815,2.817,2.817,0,0,1,2.815,0h3.3A2.817,2.817,0,0,1,8.929,2.815,2.735,2.735,0,0,1,6.114,5.532Z" fill="#ff4650"></path>
      </g>
    </g>
    <g id="Group_8" transform="translate(48.447 19.493)">
      <path id="Path_8" d="M13.393,17.275H1.068A1.077,1.077,0,0,1,0,16.208H0V1.068A1.1,1.1,0,0,1,1.165,0,1.1,1.1,0,0,1,2.329,1.068V14.946H13.49a1.165,1.165,0,0,1,1.165,1.068c-.194.776-.679,1.262-1.262,1.262Z" fill="#2b273d"></path>
    </g>
  </g>
</svg>
