<svg xmlns="http://www.w3.org/2000/svg" width="71.532" height="73.442" viewBox="0 0 71.532 73.442">
  <g id="Group_5544" data-name="Group 5544" transform="translate(0)">
    <g id="Group_22" data-name="Group 22" transform="translate(1.626 2.579)">
      <g id="Group_21" data-name="Group 21" transform="translate(0.287 0.291)">
        <path id="Path_29" data-name="Path 29" d="M-326,813.852A33.852,33.852,0,0,0-292.148,847.7,33.852,33.852,0,0,0-258.3,813.852,33.852,33.852,0,0,0-292.148,780a33.865,33.865,0,0,0-32.9,25.843,33.941,33.941,0,0,0-.953,8.009Z" transform="translate(326 -780)" fill="#f8f8f8"></path>
      </g>
      <path id="Path_30" data-name="Path 30" d="M-292.36,847.778a34.178,34.178,0,0,1-34.14-34.14,34.306,34.306,0,0,1,.96-8.079A34.037,34.037,0,0,1-292.36,779.5a34.178,34.178,0,0,1,34.14,34.14A34.178,34.178,0,0,1-292.36,847.778Zm0-67.705A33.463,33.463,0,0,0-324.981,805.7a33.735,33.735,0,0,0-.944,7.94A33.6,33.6,0,0,0-292.36,847.2a33.6,33.6,0,0,0,33.566-33.566A33.6,33.6,0,0,0-292.36,780.07Z" transform="translate(326.5 -779.496)" fill="#2b273d"></path>
    </g>
    <g id="Group_23" data-name="Group 23" transform="translate(0)">
      <path id="Path_31" data-name="Path 31" d="M-260.678,806.558a2.869,2.869,0,0,1-2.785-2.191,30.893,30.893,0,0,0-30.1-23.63,30.893,30.893,0,0,0-30.112,23.63,2.871,2.871,0,0,1-3.466,2.109,2.87,2.87,0,0,1-2.109-3.467A36.617,36.617,0,0,1-293.564,775a36.615,36.615,0,0,1,35.681,28.009,2.869,2.869,0,0,1-2.109,3.467,2.869,2.869,0,0,1-.685.082Z" transform="translate(329.332 -775)" fill="#2b273d"></path>
    </g>
    <g id="Group_24" data-name="Group 24" transform="translate(0.146 42.457)">
      <path id="Path_32" data-name="Path 32" d="M-293.459,879.983a36.73,36.73,0,0,1-35.525-27.39,2.869,2.869,0,0,1,2.048-3.5,2.869,2.869,0,0,1,3.5,2.047,30.99,30.99,0,0,0,29.974,23.1,30.991,30.991,0,0,0,29.974-23.106,2.869,2.869,0,0,1,3.5-2.044,2.869,2.869,0,0,1,2.047,3.5A36.73,36.73,0,0,1-293.459,879.983Z" transform="translate(329.078 -848.997)" fill="#2b273d"></path>
    </g>
    <g id="Group_41" data-name="Group 41" transform="translate(10.805 14)">
      <g id="Group_28" data-name="Group 28" transform="translate(0 10.386)">
        <path id="Path_33" data-name="Path 33" d="M-295.487,818a1.741,1.741,0,0,1,1.741,1.741v7.068a1.756,1.756,0,0,1-1.75,1.75h-12.763A1.741,1.741,0,0,1-310,826.818v-7.077A1.745,1.745,0,0,1-308.259,818Z" transform="translate(310.288 -817.713)" fill="#69a0f9"></path>
        <path id="Path_34" data-name="Path 34" d="M-295.71,828.633h-12.762a2.03,2.03,0,0,1-2.029-2.028v-7.077a2.029,2.029,0,0,1,2.029-2.028H-295.7a2.03,2.03,0,0,1,2.029,2.028V826.6a2.04,2.04,0,0,1-2.038,2.037Zm-12.762-10.559a1.456,1.456,0,0,0-1.454,1.454v7.077a1.456,1.456,0,0,0,1.454,1.454h12.762a1.469,1.469,0,0,0,1.464-1.463v-7.068a1.457,1.457,0,0,0-1.454-1.454Z" transform="translate(310.501 -817.5)" fill="#2b273d"></path>
        <g id="Group_27" data-name="Group 27" transform="translate(2.273 2.885)">
          <path id="Path_35" data-name="Path 35" d="M-306.181,823.251h11.565a.36.36,0,0,0,.359-.361.36.36,0,0,0-.1-.255.36.36,0,0,0-.255-.106h-11.565a.36.36,0,0,0-.358.362A.36.36,0,0,0-306.181,823.251Z" transform="translate(306.539 -822.529)" fill="#fff"></path>
          <g id="Group_25" data-name="Group 25" transform="translate(0 2.313)">
            <path id="Path_36" data-name="Path 36" d="M-306.181,827.281h11.565a.36.36,0,0,0,.359-.361.36.36,0,0,0-.359-.361h-11.565a.36.36,0,0,0-.358.361A.36.36,0,0,0-306.181,827.281Z" transform="translate(306.539 -826.56)" fill="#fff"></path>
          </g>
          <g id="Group_26" data-name="Group 26" transform="translate(0 4.624)">
            <path id="Path_37" data-name="Path 37" d="M-306.181,831.31h11.565a.36.36,0,0,0,.359-.361.36.36,0,0,0-.359-.361h-11.565a.36.36,0,0,0-.358.361A.36.36,0,0,0-306.181,831.31Z" transform="translate(306.539 -830.589)" fill="#fff"></path>
          </g>
        </g>
      </g>
      <g id="Group_32" data-name="Group 32" transform="translate(28.69 2.417)">
        <path id="Path_38" data-name="Path 38" d="M-245.142,804.111a1.782,1.782,0,0,1,1.782,1.783v7.235a1.8,1.8,0,0,1-1.8,1.8H-258.22a1.782,1.782,0,0,1-1.78-1.786V805.9a1.788,1.788,0,0,1,1.782-1.783Z" transform="translate(260.286 -803.825)" fill="#c857f2"></path>
        <path id="Path_39" data-name="Path 39" d="M-245.366,814.995H-258.43a2.072,2.072,0,0,1-2.069-2.069v-7.245a2.072,2.072,0,0,1,2.069-2.069h13.075a2.072,2.072,0,0,1,2.069,2.069v7.235A2.082,2.082,0,0,1-245.366,814.995Zm-13.065-10.81a1.5,1.5,0,0,0-1.495,1.5v7.245a1.5,1.5,0,0,0,1.495,1.495h13.065a1.507,1.507,0,0,0,1.506-1.506V805.68a1.5,1.5,0,0,0-1.495-1.5Z" transform="translate(260.499 -803.612)" fill="#2b273d"></path>
        <g id="Group_31" data-name="Group 31" transform="translate(2.318 2.947)">
          <path id="Path_40" data-name="Path 40" d="M-256.09,809.487h11.838a.368.368,0,0,0,.26-.109.368.368,0,0,0,.107-.261.368.368,0,0,0-.107-.261.368.368,0,0,0-.26-.109h-11.839a.368.368,0,0,0-.26.109.368.368,0,0,0-.107.261.368.368,0,0,0,.107.261A.368.368,0,0,0-256.09,809.487Z" transform="translate(256.458 -808.748)" fill="#fff"></path>
          <g id="Group_29" data-name="Group 29" transform="translate(0 2.366)">
            <path id="Path_41" data-name="Path 41" d="M-256.09,813.612h11.838a.368.368,0,0,0,.26-.109.368.368,0,0,0,.107-.261.368.368,0,0,0-.107-.261.368.368,0,0,0-.26-.109h-11.839a.368.368,0,0,0-.26.109.368.368,0,0,0-.107.261.368.368,0,0,0,.107.261A.368.368,0,0,0-256.09,813.612Z" transform="translate(256.458 -812.873)" fill="#fff"></path>
          </g>
          <g id="Group_30" data-name="Group 30" transform="translate(0 4.731)">
            <path id="Path_42" data-name="Path 42" d="M-256.09,817.733h11.838a.369.369,0,0,0,.367-.37.368.368,0,0,0-.107-.261.368.368,0,0,0-.26-.109h-11.839a.369.369,0,0,0-.26.109.368.368,0,0,0-.107.261.369.369,0,0,0,.368.37Z" transform="translate(256.458 -816.994)" fill="#fff"></path>
          </g>
        </g>
      </g>
      <g id="Group_36" data-name="Group 36" transform="translate(9.251 0)">
        <path id="Path_43" data-name="Path 43" d="M-291.241,799.9a2.642,2.642,0,0,0-2.632,2.646v10.668a2.642,2.642,0,0,0,2.632,2.646h6.468a.538.538,0,0,1,.349.128l3.517,2.981a.705.705,0,0,0,.753.1.705.705,0,0,0,.408-.641v-2.026a.548.548,0,0,1,.546-.546h7.263a2.641,2.641,0,0,0,2.632-2.646V802.548a2.641,2.641,0,0,0-2.632-2.646Z" transform="translate(294.164 -799.613)" fill="#ff4650"></path>
        <path id="Path_44" data-name="Path 44" d="M-280.668,819.215a.988.988,0,0,1-.639-.237L-284.824,816a.253.253,0,0,0-.163-.06h-6.471A2.93,2.93,0,0,1-294.377,813V802.338a2.929,2.929,0,0,1,2.919-2.938h19.3a2.929,2.929,0,0,1,2.918,2.938V813a2.929,2.929,0,0,1-2.918,2.933h-7.263a.259.259,0,0,0-.259.259v2.026a.984.984,0,0,1-.575.9,1,1,0,0,1-.418.1Zm-10.79-19.24a2.355,2.355,0,0,0-2.342,2.363V813a2.355,2.355,0,0,0,2.345,2.359h6.468a.826.826,0,0,1,.534.2l3.518,2.982a.408.408,0,0,0,.447.06.408.408,0,0,0,.245-.379v-2.026a.833.833,0,0,1,.832-.832h7.263A2.355,2.355,0,0,0-269.8,813V802.338a2.355,2.355,0,0,0-2.344-2.36Z" transform="translate(294.377 -799.4)" fill="#2b273d"></path>
        <g id="Group_35" data-name="Group 35" transform="translate(3.293 4.216)">
          <path id="Path_45" data-name="Path 45" d="M-270.618,807.84H-288.1a.544.544,0,0,1-.543-.546.544.544,0,0,1,.543-.546h17.48a.544.544,0,0,1,.542.546A.544.544,0,0,1-270.618,807.84Z" transform="translate(288.641 -806.748)" fill="#fff"></path>
          <g id="Group_33" data-name="Group 33" transform="translate(0 3.494)">
            <path id="Path_46" data-name="Path 46" d="M-270.618,813.93H-288.1a.544.544,0,0,1-.543-.546.544.544,0,0,1,.543-.546h17.48a.544.544,0,0,1,.542.546A.544.544,0,0,1-270.618,813.93Z" transform="translate(288.641 -812.838)" fill="#fff"></path>
          </g>
          <g id="Group_34" data-name="Group 34" transform="translate(0 6.988)">
            <path id="Path_47" data-name="Path 47" d="M-270.618,820.02H-288.1a.544.544,0,0,1-.543-.546.544.544,0,0,1,.543-.546h17.48a.543.543,0,0,1,.384.161.543.543,0,0,1,.158.385.544.544,0,0,1-.542.546Z" transform="translate(288.641 -818.928)" fill="#fff"></path>
          </g>
        </g>
      </g>
      <g id="Group_40" data-name="Group 40" transform="translate(8.598 22.008)">
        <g id="Group_37" data-name="Group 37" transform="translate(0 7.35)">
          <path id="Path_48" data-name="Path 48" d="M-289.527,851.3l.993,3.057a.332.332,0,0,0,.316.229H-285a.332.332,0,0,1,.317.229.332.332,0,0,1-.121.372l-2.6,1.889a.331.331,0,0,0-.121.371l.993,3.057a.332.332,0,0,1-.121.372.332.332,0,0,1-.391,0l-2.6-1.889a.332.332,0,0,0-.392,0l-2.6,1.889a.332.332,0,0,1-.391,0,.332.332,0,0,1-.121-.372l.993-3.057a.331.331,0,0,0-.121-.371l-2.6-1.889a.332.332,0,0,1-.121-.372.332.332,0,0,1,.317-.229h3.214a.332.332,0,0,0,.316-.229l.993-3.057a.332.332,0,0,1,.317-.234.332.332,0,0,1,.317.235Z" transform="translate(295.303 -850.781)" fill="#f9b326"></path>
          <path id="Path_49" data-name="Path 49" d="M-293.047,861.015a.613.613,0,0,1-.364-.121.609.609,0,0,1-.225-.692l.993-3.057-2.617-1.94a.61.61,0,0,1-.224-.693.611.611,0,0,1,.588-.428h3.214l1.037-3.088a.61.61,0,0,1,.588-.428.61.61,0,0,1,.588.428l.993,3.057,3.258.031a.61.61,0,0,1,.588.428.61.61,0,0,1-.224.693l-2.6,1.889.979,3.107a.61.61,0,0,1-.225.692.606.606,0,0,1-.728,0l-2.6-1.889-2.653,1.889a.615.615,0,0,1-.365.122Zm2.991-2.592a.62.62,0,0,1,.365.119l2.6,1.889.07-.051-.993-3.057a.618.618,0,0,1,.225-.692l2.6-1.889-.027-.082h-3.214a.619.619,0,0,1-.589-.428l-.993-3.057a.04.04,0,0,0-.043-.032l-1.036,3.088a.619.619,0,0,1-.589.428h-3.214l-.2.314.169-.232,2.6,1.89a.618.618,0,0,1,.225.692l-.993,3.057.07.051,2.6-1.889a.617.617,0,0,1,.361-.121Z" transform="translate(295.517 -850.568)" fill="#2b273d"></path>
        </g>
        <g id="Group_38" data-name="Group 38" transform="translate(21.803 7.526)">
          <path id="Path_50" data-name="Path 50" d="M-251.527,851.6l.993,3.057a.332.332,0,0,0,.316.229H-247a.332.332,0,0,1,.317.229.332.332,0,0,1-.121.372l-2.6,1.889a.332.332,0,0,0-.121.372l.993,3.057a.333.333,0,0,1-.121.371.333.333,0,0,1-.391,0l-2.6-1.889a.332.332,0,0,0-.392,0l-2.6,1.889a.333.333,0,0,1-.391,0,.333.333,0,0,1-.121-.371l.993-3.057a.332.332,0,0,0-.121-.372l-2.6-1.889a.332.332,0,0,1-.121-.372.332.332,0,0,1,.317-.229h3.214a.332.332,0,0,0,.316-.229l.993-3.057a.333.333,0,0,1,.317-.233.333.333,0,0,1,.317.233Z" transform="translate(257.304 -851.085)" fill="#f9b326"></path>
          <path id="Path_51" data-name="Path 51" d="M-255.047,861.317a.614.614,0,0,1-.365-.121.61.61,0,0,1-.225-.692l.993-3.056-2.617-1.94a.609.609,0,0,1-.224-.693.61.61,0,0,1,.588-.428h3.214l1.037-3.088a.61.61,0,0,1,.588-.427.61.61,0,0,1,.588.427l.993,3.057,3.258.032a.61.61,0,0,1,.588.428.61.61,0,0,1-.224.693l-2.6,1.889.979,3.107a.61.61,0,0,1-.225.692.607.607,0,0,1-.728,0l-2.6-1.889-2.653,1.889a.615.615,0,0,1-.364.12Zm2.991-2.592a.62.62,0,0,1,.365.119l2.6,1.889.07-.051-.993-3.057a.618.618,0,0,1,.225-.692l2.6-1.889-.027-.082h-3.214a.618.618,0,0,1-.589-.428l-.993-3.057a.04.04,0,0,0-.043-.032l-1.036,3.088a.619.619,0,0,1-.589.429h-3.214l-.2.314.169-.232,2.6,1.889a.618.618,0,0,1,.225.692l-.993,3.057.07.051,2.6-1.889a.617.617,0,0,1,.361-.116Z" transform="translate(257.518 -850.872)" fill="#2b273d"></path>
        </g>
        <g id="Group_39" data-name="Group 39" transform="translate(7.392 0)">
          <path id="Path_52" data-name="Path 52" d="M-272.955,838.638l1.661,5.111a.555.555,0,0,0,.529.383h5.374a.556.556,0,0,1,.528.384.556.556,0,0,1-.2.621l-4.348,3.159a.555.555,0,0,0-.2.621l1.661,5.111a.556.556,0,0,1-.2.621.556.556,0,0,1-.653,0l-4.348-3.159a.557.557,0,0,0-.653,0l-4.348,3.159a.555.555,0,0,1-.653,0,.556.556,0,0,1-.2-.621l1.661-5.111a.557.557,0,0,0-.2-.621l-4.348-3.159a.556.556,0,0,1-.2-.621.556.556,0,0,1,.528-.384h5.374a.555.555,0,0,0,.529-.383l1.661-5.111a.556.556,0,0,1,.528-.382.556.556,0,0,1,.528.382Z" transform="translate(282.42 -837.969)" fill="#f9b326"></path>
          <path id="Path_53" data-name="Path 53" d="M-268.7,854.834a.836.836,0,0,1-.5-.163l-4.348-3.159a.269.269,0,0,0-.316,0l-4.348,3.159a.83.83,0,0,1-.991,0,.828.828,0,0,1-.306-.941l1.661-5.111a.268.268,0,0,0-.1-.3l-4.348-3.16a.829.829,0,0,1-.306-.941.829.829,0,0,1,.8-.583h5.374a.268.268,0,0,0,.256-.186l1.661-5.111a.829.829,0,0,1,.8-.583.829.829,0,0,1,.8.583l1.661,5.111a.268.268,0,0,0,.256.185h5.374a.83.83,0,0,1,.8.583.829.829,0,0,1-.306.941l-4.348,3.159a.269.269,0,0,0-.1.3l1.661,5.111a.829.829,0,0,1-.306.941.834.834,0,0,1-.495.164Zm-5-3.948a.837.837,0,0,1,.5.163l4.348,3.159a.263.263,0,0,0,.316,0,.26.26,0,0,0,.1-.3L-270.1,848.8a.84.84,0,0,1,.307-.943l4.347-3.159a.26.26,0,0,0,.1-.3.261.261,0,0,0-.256-.186h-5.374a.84.84,0,0,1-.8-.582l-1.661-5.112a.26.26,0,0,0-.256-.185.26.26,0,0,0-.256.185l-1.661,5.111a.84.84,0,0,1-.8.583h-5.374a.261.261,0,0,0-.256.186.261.261,0,0,0,.1.3l4.348,3.159a.839.839,0,0,1,.306.942l-1.661,5.111a.261.261,0,0,0,.1.3.263.263,0,0,0,.316,0l4.348-3.159a.836.836,0,0,1,.5-.162Z" transform="translate(282.634 -837.756)" fill="#2b273d"></path>
        </g>
      </g>
    </g>
  </g>
</svg>
