<svg xmlns="http://www.w3.org/2000/svg" width="73.447" height="73.444" viewBox="0 0 73.447 73.444">
  <g id="Group_5608" data-name="Group 5608" transform="translate(0)">
    <g id="Group_43" data-name="Group 43" transform="translate(2.583 2.583)">
      <g id="Group_42" data-name="Group 42" transform="translate(0.682 0.682)">
        <circle id="Ellipse_3" data-name="Ellipse 3" cx="33.5" cy="33.5" r="33.5" transform="translate(0.207 -0.265)" fill="#f8f8f8"/>
      </g>
      <path id="Path_54" data-name="Path 54" d="M-887.86,854.279A34.178,34.178,0,0,1-922,820.14,34.178,34.178,0,0,1-887.86,786a34.178,34.178,0,0,1,34.14,34.14,34.178,34.178,0,0,1-34.14,34.14Zm0-67.705a33.6,33.6,0,0,0-33.568,33.566,33.6,33.6,0,0,0,33.566,33.566A33.6,33.6,0,0,0-854.3,820.139a33.6,33.6,0,0,0-33.563-33.568Z" transform="translate(922 -786)" fill="#2b273d"/>
    </g>
    <g id="Group_61" data-name="Group 61">
      <g id="Group_44" data-name="Group 44" transform="translate(18.649 18.649)">
        <circle id="Ellipse_4" data-name="Ellipse 4" cx="9.033" cy="9.033" r="9.033" transform="translate(0.287 0.287)" fill="#ff4650"/>
        <path id="Path_55" data-name="Path 55" d="M-884.681,832.638A9.33,9.33,0,0,1-894,823.319,9.33,9.33,0,0,1-884.681,814a9.33,9.33,0,0,1,9.319,9.319,9.33,9.33,0,0,1-9.319,9.319Zm0-18.065a8.755,8.755,0,0,0-8.748,8.745,8.755,8.755,0,0,0,8.745,8.745,8.755,8.755,0,0,0,8.745-8.745,8.755,8.755,0,0,0-8.743-8.748Z" transform="translate(894 -814)" fill="#2b273d"/>
      </g>
      <g id="Group_45" data-name="Group 45" transform="translate(63.479 17.455)">
        <path id="Path_56" data-name="Path 56" d="M-813,850.455a2.855,2.855,0,0,1-1.387-.361,2.869,2.869,0,0,1-1.116-3.9,31,31,0,0,0,3.87-15.007,31,31,0,0,0-3.87-15.006,2.869,2.869,0,0,1,1.118-3.9,2.867,2.867,0,0,1,2.181-.25,2.867,2.867,0,0,1,1.719,1.366,36.756,36.756,0,0,1,4.589,17.789,36.757,36.757,0,0,1-4.592,17.793A2.869,2.869,0,0,1-813,850.455Z" transform="translate(815.869 -811.919)" fill="#2b273d"/>
      </g>
      <g id="Group_46" data-name="Group 46" transform="translate(17.456 63.476)">
        <path id="Path_57" data-name="Path 57" d="M-876.812,902.095A36.761,36.761,0,0,1-894.6,897.5a2.869,2.869,0,0,1-1.115-3.9,2.868,2.868,0,0,1,3.9-1.116,31.01,31.01,0,0,0,15.007,3.87,31.015,31.015,0,0,0,14.972-3.851,2.869,2.869,0,0,1,3.894,1.126,2.869,2.869,0,0,1-1.123,3.9,36.764,36.764,0,0,1-17.744,4.563Z" transform="translate(896.079 -892.127)" fill="#2b273d"/>
      </g>
      <g id="Group_47" data-name="Group 47" transform="translate(0 17.454)">
        <path id="Path_58" data-name="Path 58" d="M-919.284,850.66a2.869,2.869,0,0,1-2.5-1.46,36.742,36.742,0,0,1-4.715-18.014,36.757,36.757,0,0,1,4.592-17.793,2.868,2.868,0,0,1,3.9-1.113,2.869,2.869,0,0,1,1.116,3.9,31,31,0,0,0-3.87,15.007,30.991,30.991,0,0,0,3.975,15.195,2.869,2.869,0,0,1-1.09,3.909,2.855,2.855,0,0,1-1.405.369Z" transform="translate(926.501 -811.919)" fill="#2b273d"/>
      </g>
      <g id="Group_48" data-name="Group 48" transform="translate(43.133 1.341)">
        <path id="Path_59" data-name="Path 59" d="M-823.242,811.926a2.848,2.848,0,0,1-1.238.727,2.869,2.869,0,0,1-3.547-1.968,31,31,0,0,0-7.875-13.347,31,31,0,0,0-13.346-7.875,2.869,2.869,0,0,1-1.968-3.548,2.868,2.868,0,0,1,3.547-1.968,36.751,36.751,0,0,1,15.824,9.334A36.747,36.747,0,0,1-822.51,809.1,2.868,2.868,0,0,1-823.242,811.926Z" transform="translate(851.328 -783.835)" fill="#2b273d"/>
      </g>
      <g id="Group_49" data-name="Group 49" transform="translate(1.238 43.231)">
        <path id="Path_60" data-name="Path 60" d="M-896.026,885a2.867,2.867,0,0,1-2.8.734,36.736,36.736,0,0,1-16.071-9.4,36.753,36.753,0,0,1-9.334-15.826,2.868,2.868,0,0,1,1.968-3.547,2.869,2.869,0,0,1,3.547,1.968,31,31,0,0,0,7.875,13.348,30.987,30.987,0,0,0,13.555,7.934,2.869,2.869,0,0,1,1.993,3.534,2.851,2.851,0,0,1-.732,1.258Z" transform="translate(924.344 -856.847)" fill="#2b273d"/>
      </g>
      <g id="Group_50" data-name="Group 50" transform="translate(17.454 0)">
        <path id="Path_61" data-name="Path 61" d="M-893.209,791.468a2.868,2.868,0,0,1-2.512-1.478,2.868,2.868,0,0,1,1.117-3.9,36.757,36.757,0,0,1,17.79-4.59,36.761,36.761,0,0,1,17.791,4.591,2.869,2.869,0,0,1,1.115,3.9,2.868,2.868,0,0,1-3.9,1.116,31,31,0,0,0-15.007-3.87,31,31,0,0,0-15.007,3.87A2.849,2.849,0,0,1-893.209,791.468Z" transform="translate(896.081 -781.499)" fill="#2b273d"/>
      </g>
      <g id="Group_60" data-name="Group 60" transform="translate(22.132 20.742)">
        <g id="Group_51" data-name="Group 51" transform="translate(1.755 1.35)">
          <path id="Path_62" data-name="Path 62" d="M-876.709,824.08a4.085,4.085,0,0,0-4.08-4.08,4.08,4.08,0,0,0-4.08,4.08,4.08,4.08,0,0,0,4.08,4.08,4.084,4.084,0,0,0,4.08-4.08Zm-4.08,2.448a2.448,2.448,0,0,1-2.448-2.448,2.448,2.448,0,0,1,2.448-2.448,2.448,2.448,0,0,1,2.448,2.448A2.448,2.448,0,0,1-880.789,826.528Z" transform="translate(884.869 -820)" fill="#fff"/>
        </g>
        <g id="Group_53" data-name="Group 53" transform="translate(0.255 9.509)">
          <g id="Group_52" data-name="Group 52" transform="translate(2.11 4.472)">
            <path id="Path_63" data-name="Path 63" d="M-883.8,842.016a.208.208,0,0,1,0,.055,7.644,7.644,0,0,0,3.471.833,7.647,7.647,0,0,0,3.47-.833.193.193,0,0,0,0-.056,7.531,7.531,0,0,1-3.466.843A7.538,7.538,0,0,1-883.8,842.016Z" transform="translate(883.806 -842.015)" fill="none"/>
          </g>
          <path id="Path_64" data-name="Path 64" d="M-881.9,834.221a5.72,5.72,0,0,0-5.581,4.5,8.9,8.9,0,0,0,1.511.979,4.08,4.08,0,0,1,4.07-3.853,4.08,4.08,0,0,1,4.07,3.853,8.946,8.946,0,0,0,1.51-.979A5.72,5.72,0,0,0-881.9,834.221Z" transform="translate(887.484 -834.221)" fill="#fff"/>
        </g>
        <g id="Group_54" data-name="Group 54" transform="translate(0 18.065)">
          <path id="Path_65" data-name="Path 65" d="M-874.728,861.639a4.869,4.869,0,0,1-4.864-4.864v-.7h.694a.7.7,0,0,0,.622-.383.7.7,0,0,0-.066-.728l-4.168-5.559a.7.7,0,0,0-.556-.278.7.7,0,0,0-.556.278l-4.169,5.559a.7.7,0,0,0-.065.728.7.7,0,0,0,.621.383h.7v.7a6.261,6.261,0,0,0,6.253,6.253h5.558a.7.7,0,0,0,.694-.7.694.694,0,0,0-.694-.694Zm-5.558,0a4.869,4.869,0,0,1-4.864-4.864v-1.387a.694.694,0,0,0-.2-.492.694.694,0,0,0-.491-.2l2.779-3.706,2.779,3.706a.694.694,0,0,0-.491.2.694.694,0,0,0-.2.492v1.387a6.245,6.245,0,0,0,2.327,4.864Z" transform="translate(887.929 -849.133)" fill="#69a0f9"/>
        </g>
        <g id="Group_55" data-name="Group 55" transform="translate(15.285 0)">
          <path id="Path_66" data-name="Path 66" d="M-860.595,819.038a4.869,4.869,0,0,1,4.864,4.864v.7h-.7a.7.7,0,0,0-.621.383.7.7,0,0,0,.066.728l4.168,5.559a.7.7,0,0,0,.556.278.7.7,0,0,0,.556-.278l4.168-5.559a.693.693,0,0,0,.066-.728.7.7,0,0,0-.621-.383h-.7v-.7c0-.188-.009-.376-.025-.562a.7.7,0,0,0-.754-.631.7.7,0,0,0-.63.754c.013.145.02.293.02.439v1.387a.7.7,0,0,0,.694.7l-2.779,3.706-2.779-3.706a.694.694,0,0,0,.491-.2.694.694,0,0,0,.2-.492V823.9a6.246,6.246,0,0,0-2.327-4.864h1.633a4.846,4.846,0,0,1,1.619.276.7.7,0,0,0,.886-.424.694.694,0,0,0-.424-.886,6.228,6.228,0,0,0-2.081-.355H-860.6a.7.7,0,0,0-.694.7.694.694,0,0,0,.694.695Z" transform="translate(861.29 -817.648)" fill="#ff4650"/>
        </g>
        <g id="Group_56" data-name="Group 56" transform="translate(25.22 2.154)">
          <ellipse id="Ellipse_5" data-name="Ellipse 5" cx="0.694" cy="0.694" rx="0.694" ry="0.694" transform="translate(0 0)" fill="#fc6571"/>
        </g>
        <g id="Group_57" data-name="Group 57" transform="translate(14.016 15.407)">
          <circle id="Ellipse_6" data-name="Ellipse 6" cx="9.033" cy="9.033" r="9.033" transform="translate(0.287 0.287)" fill="#69a0f9"/>
          <path id="Path_67" data-name="Path 67" d="M-854.181,863.138a9.329,9.329,0,0,1-9.319-9.319,9.33,9.33,0,0,1,9.319-9.319,9.33,9.33,0,0,1,9.319,9.319,9.33,9.33,0,0,1-9.319,9.319Zm0-18.065a8.755,8.755,0,0,0-8.748,8.745,8.755,8.755,0,0,0,8.745,8.745,8.755,8.755,0,0,0,8.745-8.745,8.755,8.755,0,0,0-8.743-8.748Z" transform="translate(863.5 -844.5)" fill="#2b273d"/>
        </g>
        <g id="Group_58" data-name="Group 58" transform="translate(19.255 18.85)">
          <path id="Path_68" data-name="Path 68" d="M-846.209,854.58a4.085,4.085,0,0,0-4.08-4.08,4.08,4.08,0,0,0-4.08,4.08,4.08,4.08,0,0,0,4.08,4.08A4.084,4.084,0,0,0-846.209,854.58Zm-4.08,2.448a2.448,2.448,0,0,1-2.448-2.448,2.448,2.448,0,0,1,2.448-2.448,2.448,2.448,0,0,1,2.448,2.448,2.448,2.448,0,0,1-2.448,2.448Z" transform="translate(854.369 -850.5)" fill="#fff"/>
        </g>
        <g id="Group_59" data-name="Group 59" transform="translate(17.755 27.009)">
          <path id="Path_69" data-name="Path 69" d="M-851.4,864.721a5.72,5.72,0,0,0-5.581,4.5,8.9,8.9,0,0,0,1.51.979,4.08,4.08,0,0,1,4.07-3.853,4.08,4.08,0,0,1,4.07,3.853,8.948,8.948,0,0,0,1.51-.979,5.72,5.72,0,0,0-5.58-4.5Z" transform="translate(856.984 -864.721)" fill="#fff"/>
        </g>
      </g>
    </g>
  </g>
</svg>
