<svg xmlns="http://www.w3.org/2000/svg" width="110.614" height="100.375" viewBox="0 0 110.614 100.375"><defs><style>.a{fill:#f993a0;}.b{fill:#2b273d;}.c{fill:#fff;}.d{fill:#cecae0;}.e{fill:#a5e8fd;}.f{fill:#8399fe;}.g{fill:#fc6571;}.h{fill:#bee75e;}.i{fill:#f4d844;}.j{fill:#8e8ca8;}.k{fill:#467cdb;}.l{fill:#152547;}</style></defs><g transform="translate(-287.392 -617.745)"><g transform="translate(293.511 617.744)"><path class="a" d="M344.438,696.231v5.9l1.476,2.952,1.475-2.952,2.952-2.952-2.952-2.952-1.475-2.951Z" transform="translate(-297.202 -619.474)"/><path class="b" d="M350.017,696.231l-1.476-2.951-1.476,2.951v5.9l1.476,2.952,1.476-2.952Z" transform="translate(-296.878 -619.474)"/><path class="a" d="M310.275,627.583V704.34h41.331l2.952-41.331-2.952-35.426Z" transform="translate(-301.419 -627.583)"/><path class="b" d="M347.065,627.583V704.34H388.4V627.583Z" transform="translate(-296.878 -627.583)"/><path class="b" d="M360.529,712.324h20.665v-5.9H360.529l-2.952,2.952Z" transform="translate(-295.58 -617.852)"/><path class="b" d="M336.2,712.324H315.531v-5.9H336.2l2.952,2.952Z" transform="translate(-300.77 -617.852)"/><path class="c" d="M315.531,632.838v17.714h35.426l2.952-8.857-2.952-8.857Z" transform="translate(-300.77 -626.934)"/><path class="d" d="M382.492,632.838H347.065v17.714h35.427Z" transform="translate(-296.878 -626.934)"/><path class="e" d="M341.81,638.094V644h5.9l2.952-2.952-2.952-2.952Z" transform="translate(-297.526 -626.286)"/><path class="f" d="M376.588,638.094H347.065V644h29.523Z" transform="translate(-296.878 -626.286)"/><path class="g" d="M320.787,638.094h5.9V644h-5.9Z" transform="translate(-300.121 -626.286)"/><path class="h" d="M331.3,638.094h5.9V644h-5.9Z" transform="translate(-298.824 -626.286)"/><path class="c" d="M315.531,653.861v17.714h35.426l2.952-8.857-2.952-8.857Z" transform="translate(-300.77 -624.34)"/><path class="d" d="M382.492,653.861H347.065v17.714h35.427Z" transform="translate(-296.878 -624.34)"/><path class="e" d="M341.81,659.117v5.9h5.9l2.952-2.952-2.952-2.952Z" transform="translate(-297.526 -623.691)"/><path class="f" d="M376.588,659.117H347.065v5.9h29.523Z" transform="translate(-296.878 -623.691)"/><path class="i" d="M320.787,659.117h5.9v5.9h-5.9Z" transform="translate(-300.121 -623.691)"/><path class="g" d="M331.3,659.117h5.9v5.9h-5.9Z" transform="translate(-298.824 -623.691)"/><path class="c" d="M315.531,674.884V692.6h35.426l2.952-8.857-2.952-8.857Z" transform="translate(-300.77 -621.745)"/><path class="d" d="M382.492,674.884H347.065V692.6h35.427Z" transform="translate(-296.878 -621.745)"/><path class="e" d="M341.81,680.14v5.9h5.9l2.952-2.952-2.952-2.952Z" transform="translate(-297.526 -621.096)"/><path class="f" d="M376.588,680.14H347.065v5.9h29.523Z" transform="translate(-296.878 -621.096)"/><path class="h" d="M320.787,680.14h5.9v5.9h-5.9Z" transform="translate(-300.121 -621.096)"/><path class="g" d="M331.3,680.14h5.9v5.9h-5.9Z" transform="translate(-298.824 -621.096)"/><path class="b" d="M333.926,701.163v17.713h14.761l2.952-8.856-2.952-8.857Z" transform="translate(-298.499 -618.501)"/><path class="a" d="M361.827,701.163H347.065v17.713h14.762Z" transform="translate(-296.878 -618.501)"/><circle class="g" cx="8.857" cy="8.857" r="8.857" transform="translate(82.663 82.662)"/><circle class="j" cx="8.857" cy="8.857" r="8.857" transform="translate(0 82.662)"/></g><g transform="translate(287.392 617.744)"><path class="b" d="M410.79,145.588a3.376,3.376,0,1,1,3.376-3.376,3.38,3.38,0,0,1-3.376,3.376Zm0-4.39a1.014,1.014,0,1,0,1.014,1.014A1.015,1.015,0,0,0,410.79,141.2Z" transform="translate(-305.747 -127.603)"/><path class="g" d="M420.081,188.36a3.376,3.376,0,1,1,3.376-3.376,3.38,3.38,0,0,1-3.376,3.376Zm0-4.39a1.014,1.014,0,1,0,1.014,1.014A1.015,1.015,0,0,0,420.081,183.97Z" transform="translate(-312.843 -160.271)"/><path class="k" d="M70.787,98.847a1.181,1.181,0,0,1-1.181-1.181,1.419,1.419,0,0,0-1.417-1.417,1.181,1.181,0,0,1,0-2.362,1.419,1.419,0,0,0,1.417-1.417,1.181,1.181,0,1,1,2.362,0,1.419,1.419,0,0,0,1.417,1.417,1.181,1.181,0,0,1,0,2.362,1.419,1.419,0,0,0-1.417,1.417A1.181,1.181,0,0,1,70.787,98.847Z" transform="translate(-64.408 -91.288)"/><path class="l" d="M75.537,393.081a1.181,1.181,0,0,1-1.181-1.181,1.419,1.419,0,0,0-1.417-1.417,1.181,1.181,0,1,1,0-2.362,1.419,1.419,0,0,0,1.417-1.417,1.181,1.181,0,1,1,2.362,0,1.419,1.419,0,0,0,1.417,1.417,1.181,1.181,0,0,1,0,2.362,1.419,1.419,0,0,0-1.417,1.417A1.181,1.181,0,0,1,75.537,393.081Z" transform="translate(-68.036 -316.013)"/><path class="g" d="M59.787,345.124a1.181,1.181,0,0,1-1.181-1.181,1.419,1.419,0,0,0-1.417-1.417,1.181,1.181,0,1,1,0-2.362,1.419,1.419,0,0,0,1.417-1.417,1.181,1.181,0,1,1,2.362,0,1.419,1.419,0,0,0,1.417,1.417,1.181,1.181,0,1,1,0,2.362,1.419,1.419,0,0,0-1.417,1.417A1.181,1.181,0,0,1,59.787,345.124Z" transform="translate(-56.007 -279.386)"/></g></g></svg>