<svg xmlns="http://www.w3.org/2000/svg" width="124.03" height="118.871" viewBox="0 0 124.03 118.871"><defs><style>.a,.b{fill:#2b273d;}.a{opacity:0.1;isolation:isolate;}.c{fill:#fc6571;}.d{fill:#afabc6;}.e{fill:#8e8ca8;}.f{fill:#f5f4f9;}.g{fill:#f993a0;}.h{fill:#ffa052;}.i{fill:#f9cad0;}.j{fill:#cecae0;}.k{fill:#ddd9e4;}.l{fill:#ffbe92;}.m{fill:#8399fe;}.n{fill:#c182f9;}</style></defs><g transform="translate(-631.365 -606.303)"><path class="a" d="M753.882,613.864v76.914a4.539,4.539,0,0,1-4.537,4.538H637.415a4.54,4.54,0,0,1-4.538-4.538V613.864a4.539,4.539,0,0,1,4.538-4.537h111.93a4.539,4.539,0,0,1,4.537,4.537Z"/><path class="b" d="M710.9,604.074a1,1,0,0,1-.707-.293l-2.2-2.2a1,1,0,0,1,0-1.415l2.2-2.2a1,1,0,0,1,1.415,0l2.2,2.2a1,1,0,0,1,0,1.415l-2.2,2.2A1,1,0,0,1,710.9,604.074Zm-.79-3.206.79.79.79-.79-.79-.79Z" transform="translate(1.64 8.64)"/><path class="c" d="M731.512,719.188a1.513,1.513,0,0,1-1.07-.443l-3.333-3.333a1.512,1.512,0,0,1,0-2.139l3.333-3.333a1.514,1.514,0,0,1,2.139,0l3.333,3.333a1.51,1.51,0,0,1,0,2.139l-3.333,3.334a1.514,1.514,0,0,1-1.069.442Zm-1.194-4.845,1.194,1.194,1.194-1.194-1.194-1.2Z"/><path class="c" d="M644.846,724.791a.463.463,0,0,1-.463-.463.557.557,0,0,0-.557-.557.463.463,0,0,1,0-.925.557.557,0,0,0,.557-.557.463.463,0,1,1,.925,0,.557.557,0,0,0,.557.557.463.463,0,1,1,0,.925.558.558,0,0,0-.557.557A.463.463,0,0,1,644.846,724.791Z" transform="translate(0 -17)"/><path class="b" d="M661.318,717.483a1.513,1.513,0,0,1-1.512-1.513,1.823,1.823,0,0,0-1.821-1.821,1.512,1.512,0,0,1,0-3.025,1.822,1.822,0,0,0,1.821-1.82,1.512,1.512,0,1,1,3.025,0,1.822,1.822,0,0,0,1.821,1.82,1.512,1.512,0,0,1,0,3.025,1.823,1.823,0,0,0-1.821,1.821A1.512,1.512,0,0,1,661.318,717.483Z"/><path class="d" d="M710.535,723.664H676.224l4.472-17.729,2.39-9.469h20.588l2.39,9.469Z"/><path class="e" d="M706.064,705.935H680.7l2.39-9.469h20.588Z"/><path class="b" d="M710.537,725.174H676.223a1.512,1.512,0,0,1-1.466-1.882l5.4-21.4a1.512,1.512,0,1,1,2.933.74l-4.925,19.518h30.43l-4.969-19.693a1.512,1.512,0,0,1,2.933-.739L712,723.292a1.512,1.512,0,0,1-1.466,1.882Z"/><path class="f" d="M753.882,620.217v76.914a4.539,4.539,0,0,1-4.537,4.538H637.415a4.54,4.54,0,0,1-4.538-4.538V620.217a4.54,4.54,0,0,1,4.538-4.538h111.93a4.539,4.539,0,0,1,4.537,4.538Z"/><path class="g" d="M749.345,615.679H723.329v85.99h26.016a4.539,4.539,0,0,0,4.537-4.538V620.217a4.539,4.539,0,0,0-4.537-4.538Z"/><path class="h" d="M748.286,644.464l-2.175-7.639a1.517,1.517,0,0,0-1.455-1.1h-7.381a1.517,1.517,0,0,0-1.456,1.1l-2.175,7.639A30.406,30.406,0,0,0,725.11,648l-6.939-3.863a1.512,1.512,0,0,0-1.806.251l-5.219,5.221a1.519,1.519,0,0,0-.254,1.806l3.866,6.94a30.419,30.419,0,0,0-3.536,8.531l-7.638,2.178a1.509,1.509,0,0,0-1.1,1.455V677.9a1.514,1.514,0,0,0,1.1,1.455l7.638,2.175a30.3,30.3,0,0,0,2.16,5.993h22.041a14.421,14.421,0,1,1,18.459-19.733V646.43a30.339,30.339,0,0,0-5.6-1.966Z"/><path class="b" d="M748.286,644.464l-2.175-7.639a1.517,1.517,0,0,0-1.455-1.1h-7.381a1.517,1.517,0,0,0-1.456,1.1l-2.175,7.639A30.406,30.406,0,0,0,725.11,648l-6.939-3.863a1.512,1.512,0,0,0-1.806.251l-5.219,5.221a1.519,1.519,0,0,0-.254,1.806l3.866,6.94a30.419,30.419,0,0,0-3.536,8.531l-7.638,2.178a1.509,1.509,0,0,0-1.1,1.455V677.9a1.514,1.514,0,0,0,1.1,1.455l7.638,2.175a30.3,30.3,0,0,0,2.16,5.993h22.041a14.421,14.421,0,1,1,18.459-19.733V646.43a30.339,30.339,0,0,0-5.6-1.966Z"/><path class="i" d="M753.882,630.253V620.218a4.537,4.537,0,0,0-4.537-4.538H637.415a4.538,4.538,0,0,0-4.538,4.538v10.035Z"/><path class="b" d="M753.882,631.765H632.877a1.513,1.513,0,0,1,0-3.025H753.882a1.513,1.513,0,1,1,0,3.025Z"/><path class="j" d="M632.877,686.425v10.706a4.538,4.538,0,0,0,4.538,4.538h111.93a4.537,4.537,0,0,0,4.537-4.538V686.425Z"/><path class="b" d="M753.715,687.938H642.545a1.512,1.512,0,0,1,0-3.025h111.17a1.512,1.512,0,1,1,0,3.025Z"/><path class="b" d="M716.351,725.174H670.409a1.513,1.513,0,1,1,0-3.025h45.942a1.513,1.513,0,0,1,0,3.025Z"/><path class="b" d="M644.4,624.5a1.512,1.512,0,0,1-1.513-1.512v-.044a1.512,1.512,0,1,1,3.025,0v.044A1.512,1.512,0,0,1,644.4,624.5Z"/><path class="b" d="M650.244,624.5a1.512,1.512,0,0,1-1.513-1.512v-.044a1.512,1.512,0,1,1,3.025,0v.044A1.512,1.512,0,0,1,650.244,624.5Z"/><path class="b" d="M656.089,624.5a1.512,1.512,0,0,1-1.512-1.512v-.044a1.512,1.512,0,1,1,3.025,0v.044A1.512,1.512,0,0,1,656.089,624.5Z"/><path class="b" d="M749.345,703.181H637.415a6.057,6.057,0,0,1-6.05-6.05V620.218a6.057,6.057,0,0,1,6.05-6.05h111.93a6.057,6.057,0,0,1,6.05,6.05v10.035a1.513,1.513,0,0,1-3.025,0V620.218a3.028,3.028,0,0,0-3.025-3.025H637.415a3.028,3.028,0,0,0-3.025,3.025v76.913a3.028,3.028,0,0,0,3.025,3.025h111.93a3.028,3.028,0,0,0,3.025-3.025V638.584a1.513,1.513,0,0,1,3.025,0v58.547A6.057,6.057,0,0,1,749.345,703.181Z"/><path class="k" d="M694.5,670.118H644.06a1.515,1.515,0,1,1,0-3.03H694.5a1.515,1.515,0,1,1,0,3.03Z"/><path class="l" d="M676.351,657.415H644.06a1.515,1.515,0,1,1,0-3.03h32.291a1.515,1.515,0,1,1,0,3.03Z"/><path class="k" d="M694.5,676.128H644.06a1.515,1.515,0,1,1,0-3.03H694.5a1.515,1.515,0,1,1,0,3.03Z"/><path class="c" d="M648.038,648.4a1.508,1.508,0,0,1-1.069-.443l-3.641-3.641a1.512,1.512,0,0,1,0-2.139l3.641-3.641a1.512,1.512,0,0,1,2.139,2.139l-2.571,2.572,2.571,2.571a1.513,1.513,0,0,1-1.07,2.582Z"/><path class="c" d="M662.184,648.4a1.513,1.513,0,0,1-1.069-2.582l2.571-2.572-2.571-2.571a1.513,1.513,0,0,1,2.139-2.139l3.641,3.641a1.514,1.514,0,0,1,0,2.139l-3.641,3.641A1.51,1.51,0,0,1,662.184,648.4Z"/><path class="c" d="M653.054,648.4a1.514,1.514,0,0,1-1.316-2.257l4.112-7.281a1.512,1.512,0,1,1,2.634,1.487l-4.111,7.282a1.513,1.513,0,0,1-1.319.769Z"/><path class="m" d="M730.6,676.128h-4.84a.909.909,0,0,1-.908-.908V656.807a.908.908,0,0,1,.908-.907h4.84a.908.908,0,0,1,.908.907V675.22A.909.909,0,0,1,730.6,676.128Z"/><path class="m" d="M720.708,676.128h-4.84a.909.909,0,0,1-.908-.908V663.828a.908.908,0,0,1,.908-.907h4.84a.908.908,0,0,1,.908.907V675.22A.909.909,0,0,1,720.708,676.128Z"/><path class="m" d="M740.5,676.128h-4.84a.909.909,0,0,1-.908-.908v-23.7a.908.908,0,0,1,.908-.907h4.84a.908.908,0,0,1,.908.907v23.7A.909.909,0,0,1,740.5,676.128Z"/><circle class="n" cx="1.691" cy="1.691" r="1.691" transform="translate(707.644 638.088)"/><circle class="n" cx="1.691" cy="1.691" r="1.691" transform="translate(702.528 638.088)"/><circle class="n" cx="1.691" cy="1.691" r="1.691" transform="translate(697.412 638.088)"/></g></svg>