<svg xmlns="http://www.w3.org/2000/svg" width="98.603" height="118.967" viewBox="0 0 98.603 118.967"><defs><style>.a{fill:#2626bc;opacity:0.1;isolation:isolate;}.b{fill:#f9cad0;}.c{fill:#fff;}.d{fill:#2b273d;}.e,.h{fill:#f993a0;}.f{fill:#fc6571;}.g{fill:#152547;}.h{opacity:0.11;}.i{fill:#ff7eb8;}.j{fill:#8399fe;}.k{fill:#ffc4df;}.l{fill:#467cdb;}</style></defs><g transform="translate(-12.618 -14.304)"><g transform="translate(12.618 14.304)"><g transform="translate(17.923)"><path class="a" d="M187.1,168.1H139.367a7.6,7.6,0,0,1-7.6-7.6V64.082a7.6,7.6,0,0,1,7.6-7.6H187.1a7.6,7.6,0,0,1,7.6,7.6v96.424A7.6,7.6,0,0,1,187.1,168.1Z" transform="translate(-130.502 -49.137)"/><path class="b" d="M187.1,144.1H139.367a7.6,7.6,0,0,1-7.6-7.6V40.082a7.6,7.6,0,0,1,7.6-7.6H187.1a7.6,7.6,0,0,1,7.6,7.6v96.424A7.6,7.6,0,0,1,187.1,144.1Z" transform="translate(-130.502 -31.217)"/><path class="c" d="M131.77,75.392H194.7v89.884H131.77Z" transform="translate(-130.503 -63.257)"/><path class="d" d="M183.37,141.637H135.633a8.875,8.875,0,0,1-8.865-8.865V36.348a8.875,8.875,0,0,1,8.865-8.865H183.37a8.875,8.875,0,0,1,8.865,8.865v96.424a8.876,8.876,0,0,1-8.866,8.865ZM135.633,30.016a6.34,6.34,0,0,0-6.332,6.332v96.424a6.34,6.34,0,0,0,6.332,6.332H183.37a6.34,6.34,0,0,0,6.332-6.332V36.348a6.34,6.34,0,0,0-6.332-6.332Z" transform="translate(-126.768 -27.483)"/><g transform="translate(27.039 5.666)"><path class="e" d="M243.64,52.386h-8.857a1.266,1.266,0,1,1,0-2.533h8.857a1.266,1.266,0,1,1,0,2.533Z" transform="translate(-233.517 -49.853)"/></g><circle class="e" cx="1.267" cy="1.267" r="1.267" transform="translate(41.804 5.665)"/><path class="f" d="M208.9,101.785v21.5a2.534,2.534,0,0,1-2.533,2.533H163.083a2.534,2.534,0,0,1-2.533-2.533v-21.5a2.534,2.534,0,0,1,2.533-2.533h43.288A2.534,2.534,0,0,1,208.9,101.785Z" transform="translate(-151.993 -81.073)"/><path class="e" d="M252.556,115.956v16.682a2.534,2.534,0,0,1-2.533,2.533H219.152a20.74,20.74,0,0,1-.142-2.427,20.975,20.975,0,0,1,33.546-16.788Z" transform="translate(-195.646 -90.422)"/><path class="g" d="M208.9,383.095v10.053H160.55V383.095a2.534,2.534,0,0,1,2.533-2.533h43.288A2.534,2.534,0,0,1,208.9,383.095Z" transform="translate(-151.993 -291.129)"/><path class="h" d="M180.436,386.856a13.851,13.851,0,0,1-1.5,6.292H160.55V383.095a2.534,2.534,0,0,1,2.533-2.533h15.851A13.87,13.87,0,0,1,180.436,386.856Z" transform="translate(-151.993 -291.129)"/><g transform="translate(8.557 50.738)"><path class="i" d="M181.763,240.394H161.818a1.267,1.267,0,0,1-1.266-1.266V229.061a1.267,1.267,0,0,1,1.266-1.266h19.945a1.267,1.267,0,0,1,1.266,1.266v10.066A1.266,1.266,0,0,1,181.763,240.394Z" transform="translate(-160.552 -227.795)"/><path class="d" d="M283.918,240.394H263.973a1.267,1.267,0,0,1-1.266-1.266V229.061a1.267,1.267,0,0,1,1.266-1.266h19.945a1.267,1.267,0,0,1,1.266,1.266v10.066A1.266,1.266,0,0,1,283.918,240.394Z" transform="translate(-236.832 -227.795)"/><g transform="translate(0 15.549)"><path class="j" d="M181.763,301.78H161.818a1.267,1.267,0,0,1-1.266-1.266V290.447a1.267,1.267,0,0,1,1.266-1.266h19.945a1.267,1.267,0,0,1,1.266,1.266v10.066a1.267,1.267,0,0,1-1.266,1.266Z" transform="translate(-160.552 -289.181)"/><path class="k" d="M283.918,301.78H263.973a1.267,1.267,0,0,1-1.266-1.266V290.447a1.267,1.267,0,0,1,1.266-1.266h19.945a1.267,1.267,0,0,1,1.266,1.266v10.066a1.267,1.267,0,0,1-1.266,1.266Z" transform="translate(-236.832 -289.181)"/></g></g><g transform="translate(13.733 22.22)"><g transform="translate(0 10.834)"><path class="c" d="M198.89,157.981H182.253a1.266,1.266,0,0,0,0,2.533H198.89a1.266,1.266,0,0,0,0-2.533Z" transform="translate(-180.987 -157.981)"/></g><g transform="translate(0 5.913)"><path class="c" d="M198.89,138.553H182.253a1.266,1.266,0,1,0,0,2.533H198.89a1.266,1.266,0,1,0,0-2.533Z" transform="translate(-180.987 -138.553)"/></g><path class="k" d="M185.212,115.208h-2.959a1.266,1.266,0,1,0,0,2.533h2.959a1.266,1.266,0,1,0,0-2.533Z" transform="translate(-180.987 -115.208)"/></g><g transform="translate(8.557 84.257)"><path class="g" d="M172.375,360.128H161.817a1.266,1.266,0,1,0,0,2.533h10.558a1.266,1.266,0,1,0,0-2.533Z" transform="translate(-160.551 -360.128)"/></g><path class="h" d="M325.823,383.095v6.229a8.692,8.692,0,0,1-8.693-8.691v-.071h6.16A2.534,2.534,0,0,1,325.823,383.095Z" transform="translate(-268.912 -291.129)"/></g><path class="d" d="M411.034,146.075a3.62,3.62,0,1,1,3.62-3.62,3.624,3.624,0,0,1-3.62,3.62Zm0-4.707a1.087,1.087,0,1,0,1.087,1.087A1.088,1.088,0,0,0,411.034,141.368Z" transform="translate(-318.405 -110.63)"/><path class="f" d="M420.325,188.847a3.62,3.62,0,1,1,3.62-3.62,3.624,3.624,0,0,1-3.62,3.62Zm0-4.707a1.087,1.087,0,1,0,1.087,1.087A1.088,1.088,0,0,0,420.325,184.14Z" transform="translate(-325.342 -142.568)"/><path class="l" d="M71.06,99.393a1.266,1.266,0,0,1-1.266-1.266,1.521,1.521,0,0,0-1.52-1.52,1.266,1.266,0,0,1,0-2.533,1.521,1.521,0,0,0,1.52-1.52,1.266,1.266,0,0,1,2.533,0,1.521,1.521,0,0,0,1.52,1.52,1.266,1.266,0,0,1,0,2.533,1.521,1.521,0,0,0-1.52,1.52A1.266,1.266,0,0,1,71.06,99.393Z" transform="translate(-64.221 -75.127)"/><path class="g" d="M75.81,393.626a1.266,1.266,0,0,1-1.266-1.266,1.521,1.521,0,0,0-1.52-1.52,1.266,1.266,0,0,1,0-2.533,1.521,1.521,0,0,0,1.52-1.52,1.266,1.266,0,1,1,2.533,0,1.521,1.521,0,0,0,1.52,1.52,1.266,1.266,0,0,1,0,2.533,1.521,1.521,0,0,0-1.52,1.52A1.266,1.266,0,0,1,75.81,393.626Z" transform="translate(-67.768 -294.832)"/><path class="f" d="M60.06,345.67a1.266,1.266,0,0,1-1.266-1.266,1.521,1.521,0,0,0-1.52-1.52,1.266,1.266,0,1,1,0-2.533,1.521,1.521,0,0,0,1.52-1.52,1.266,1.266,0,1,1,2.533,0,1.521,1.521,0,0,0,1.52,1.52,1.266,1.266,0,1,1,0,2.533,1.521,1.521,0,0,0-1.52,1.52A1.266,1.266,0,0,1,60.06,345.67Z" transform="translate(-56.007 -259.023)"/></g></g></svg>