<svg xmlns="http://www.w3.org/2000/svg" width="118.585" height="94.619" viewBox="0 0 118.585 94.619"><defs><style>.a{fill:#2626bc;opacity:0.1;isolation:isolate;}.b{fill:#8399fe;}.c{fill:#6583fe;}.d{fill:#f993a0;}.e{fill:#fc6571;}.f{fill:#fff;}.g{fill:#2b273d;}.h{fill:#467cdb;}</style></defs><g transform="translate(-552.794 -751.701)"><g transform="translate(554.072 751.701)"><path class="a" d="M670.278,796.857a9.539,9.539,0,0,0-18.7-1.951,22.445,22.445,0,0,0-13.653-2.485l-6.9-6.9a2.556,2.556,0,0,0-4.363,1.8V781.03a2.556,2.556,0,0,0-2.556-2.556H597.909v-3.463a2.556,2.556,0,0,0-4.363-1.808l-11.922,11.922a2.556,2.556,0,0,0,0,3.614l3.532,3.532c-.5-.034-1.006-.053-1.515-.053a22.317,22.317,0,0,0-10.65,2.687,9.539,9.539,0,1,0-10.409,12.038,22.372,22.372,0,0,0-1.353,7.686v30.754a2.556,2.556,0,0,0,2.556,2.556h23.271a2.556,2.556,0,0,0,2.557-2.556v-5.968h9.444a2.273,2.273,0,0,0,2.243-2.641l-1.535-9.329h4.015a2.272,2.272,0,0,0,2.272-2.272V814.631a22.375,22.375,0,0,0-1.092-6.925h14.649a22.375,22.375,0,0,0-1.093,6.925v10.543a2.273,2.273,0,0,0,2.272,2.272H624.8l-1.534,9.329a2.272,2.272,0,0,0,2.242,2.641h9.444v5.968a2.556,2.556,0,0,0,2.557,2.556h23.271a2.556,2.556,0,0,0,2.556-2.556V814.631a22.361,22.361,0,0,0-1.353-7.687,9.538,9.538,0,0,0,8.292-10.087Z" transform="translate(-554.269 -754.475)"/><g transform="translate(0 11.841)"><g transform="translate(6.96)"><g transform="translate(57.286 19.77)"><path class="b" d="M650.84,788.189A22.411,22.411,0,0,1,673.251,810.6v30.753a2.556,2.556,0,0,1-2.556,2.556H647.424a2.556,2.556,0,0,1-2.556-2.556v-5.967h-9.444a2.273,2.273,0,0,1-2.243-2.642l1.535-9.328H630.7a2.273,2.273,0,0,1-2.273-2.272V810.6a22.412,22.412,0,0,1,22.412-22.411Z" transform="translate(-628.428 -788.189)"/><g transform="translate(0.144 0.991)"><path class="c" d="M652.878,801.573l-11.921,11.922a2.556,2.556,0,0,1-4.364-1.807v-3.464h-8a22.429,22.429,0,0,1,15.658-18.891l8.626,8.626a2.553,2.553,0,0,1,0,3.614Z" transform="translate(-628.594 -789.333)"/><path class="c" d="M678.026,807.682a9.44,9.44,0,0,1-2.309.283,9.538,9.538,0,0,1-7.461-15.481A22.413,22.413,0,0,1,678.026,807.682Z" transform="translate(-633.618 -789.754)"/></g></g><g transform="translate(0 12.315)"><path class="d" d="M649.675,795.874,637.755,807.8a2.556,2.556,0,0,1-4.364-1.807v-3.464H607.2a2.556,2.556,0,0,1-2.556-2.556v-11.8a2.557,2.557,0,0,1,2.556-2.557h26.193v-3.463a2.556,2.556,0,0,1,4.364-1.807l11.921,11.921a2.553,2.553,0,0,1,0,3.614Z" transform="translate(-567.963 -779.585)"/><path class="e" d="M633.391,786.538v6.39a2.557,2.557,0,0,1-2.556,2.557H604.642v-6.39a2.557,2.557,0,0,1,2.556-2.557Z" transform="translate(-567.963 -780.514)"/><g transform="translate(0 7.453)"><path class="d" d="M584.715,788.189A22.411,22.411,0,0,0,562.3,810.6v30.753a2.556,2.556,0,0,0,2.557,2.556h23.271a2.556,2.556,0,0,0,2.556-2.556v-5.967h9.444a2.273,2.273,0,0,0,2.243-2.642l-1.535-9.328h4.015a2.272,2.272,0,0,0,2.272-2.272V810.6a22.411,22.411,0,0,0-22.411-22.411Z" transform="translate(-562.303 -788.188)"/><g transform="translate(0.272)"><path class="e" d="M572.387,792.484a9.539,9.539,0,0,1-9.77,15.2,22.413,22.413,0,0,1,9.77-15.2Z" transform="translate(-562.617 -788.762)"/><path class="e" d="M604.569,795.756h-2.521v3.464a2.556,2.556,0,0,1-4.363,1.807l-11.921-11.922a2.493,2.493,0,0,1-.529-.774,22.645,22.645,0,0,1,2.545-.143,22.345,22.345,0,0,1,16.789,7.568Z" transform="translate(-565.64 -788.188)"/></g></g></g><path class="c" d="M585.73,781.659l11.922,11.922a2.556,2.556,0,0,0,4.363-1.807v-3.464h26.194a2.556,2.556,0,0,0,2.556-2.556v-11.8a2.555,2.555,0,0,0-2.556-2.556H602.014V767.93a2.556,2.556,0,0,0-4.363-1.807L585.73,778.043a2.557,2.557,0,0,0,0,3.615Z" transform="translate(-565.334 -765.369)"/></g><g transform="translate(0 15.497)"><circle class="e" cx="9.539" cy="9.539" r="9.539"/><path class="f" d="M562.714,797.691a1.273,1.273,0,0,1-.9-.374l-.852-.852a1.278,1.278,0,0,1,0-1.807l4.686-4.686a1.278,1.278,0,0,1,1.807,0l.895.895a1.278,1.278,0,0,1-1.8,1.816l-2.88,2.88a1.278,1.278,0,0,1-.954,2.129Z" transform="translate(-555.113 -784.105)"/><circle class="e" cx="9.539" cy="9.539" r="9.539" transform="translate(96.951)"/><path class="f" d="M674.624,797.691a1.273,1.273,0,0,1-.9-.374l-.852-.852a1.278,1.278,0,0,1,0-1.807l4.686-4.686a1.279,1.279,0,0,1,1.808,0l.894.895a1.278,1.278,0,0,1-1.8,1.816l-2.88,2.88a1.278,1.278,0,0,1-.954,2.129Z" transform="translate(-570.073 -784.105)"/></g></g><path class="g" d="M650.982,773.548a1.273,1.273,0,0,1-.9-.374l-2.812-2.811a1.278,1.278,0,0,1,0-1.807l2.812-2.812a1.278,1.278,0,0,1,1.807,0l2.811,2.812a1.278,1.278,0,0,1,0,1.807l-2.811,2.811A1.275,1.275,0,0,1,650.982,773.548Zm-1-4.089,1,1,1-1-1-1Z" transform="translate(-566.65 -753.528)"/><path class="e" d="M605.588,859.658a1.273,1.273,0,0,1-.9-.374l-2.812-2.811a1.278,1.278,0,0,1,0-1.807l2.812-2.812a1.278,1.278,0,0,1,1.807,0l2.811,2.812a1.276,1.276,0,0,1,0,1.807l-2.811,2.811A1.275,1.275,0,0,1,605.588,859.658Zm-1-4.089,1,1,1-1-1-1Z" transform="translate(-560.582 -765.039)"/><path class="e" d="M613.429,759.88a1.278,1.278,0,0,1-1.278-1.278,1.535,1.535,0,0,0-1.534-1.534,1.278,1.278,0,1,1,0-2.556,1.535,1.535,0,0,0,1.534-1.533,1.278,1.278,0,1,1,2.556,0,1.535,1.535,0,0,0,1.533,1.533,1.278,1.278,0,1,1,0,2.556,1.535,1.535,0,0,0-1.533,1.534A1.278,1.278,0,0,1,613.429,759.88Z" transform="translate(-561.63 -751.701)"/><path class="g" d="M620.6,855.965a1.278,1.278,0,0,1-1.278-1.278,1.535,1.535,0,0,0-1.533-1.533,1.278,1.278,0,1,1,0-2.556,1.535,1.535,0,0,0,1.533-1.534,1.278,1.278,0,0,1,2.557,0,1.535,1.535,0,0,0,1.533,1.534,1.278,1.278,0,1,1,0,2.556,1.535,1.535,0,0,0-1.533,1.533,1.278,1.278,0,0,1-1.279,1.278Z" transform="translate(-562.589 -764.545)"/><path class="h" d="M641.228,857.364a.639.639,0,0,1-.638-.638.768.768,0,0,0-.767-.768.639.639,0,1,1,0-1.278.767.767,0,0,0,.767-.767.639.639,0,0,1,1.278,0,.768.768,0,0,0,.767.767.639.639,0,1,1,0,1.278.768.768,0,0,0-.767.768A.639.639,0,0,1,641.228,857.364Z" transform="translate(-565.62 -765.279)"/></g><g transform="translate(552.794 762.259)"><path class="g" d="M646.856,815.537v.8a1.278,1.278,0,0,0,2.557,0v-.8a1.278,1.278,0,0,0-2.557,0Z" transform="translate(-565.368 -770.621)"/><path class="g" d="M660.616,822.844a1.278,1.278,0,0,0-1.807,1.807,7.642,7.642,0,1,0,0-10.807,1.278,1.278,0,0,0,1.807,1.808,5.085,5.085,0,1,1,0,7.192Z" transform="translate(-566.915 -770.267)"/><path class="g" d="M594.827,817.61a1.277,1.277,0,0,0,1.278-1.278v-.8a1.278,1.278,0,0,0-2.556,0v.8A1.278,1.278,0,0,0,594.827,817.61Z" transform="translate(-558.242 -770.621)"/><path class="g" d="M570.785,813.843a7.642,7.642,0,0,0,10.807,10.807,1.278,1.278,0,0,0-1.807-1.807,5.086,5.086,0,1,1,0-7.192,1.278,1.278,0,0,0,1.807-1.807,7.649,7.649,0,0,0-10.807,0Z" transform="translate(-554.9 -770.267)"/><path class="g" d="M560.727,800.631a23.648,23.648,0,0,0-.973,6.721V838.1a3.838,3.838,0,0,0,3.834,3.834H586.86a3.838,3.838,0,0,0,3.833-3.834v-4.69h8.166a3.55,3.55,0,0,0,3.5-4.127l-1.29-7.843h2.509a3.555,3.555,0,0,0,3.551-3.55V807.351a23.647,23.647,0,0,0-8.143-17.871v-.09h24.916a3.838,3.838,0,0,0,3.833-3.834v-5.508a1.278,1.278,0,0,1,2.181-.9l11.921,11.921a1.28,1.28,0,0,1,0,1.808l-11.921,11.921a1.278,1.278,0,0,1-2.182-.9v-3.463a1.278,1.278,0,0,0-1.278-1.279H613.173a1.278,1.278,0,0,0,0,2.556h4.552a23.66,23.66,0,0,0-.684,5.647v10.543a3.555,3.555,0,0,0,3.55,3.551h2.51l-1.29,7.843a3.549,3.549,0,0,0,3.5,4.126h8.165v4.69a3.839,3.839,0,0,0,3.834,3.833h23.271a3.839,3.839,0,0,0,3.834-3.833V807.352a1.278,1.278,0,0,0-2.557,0V838.1a1.28,1.28,0,0,1-1.278,1.279H637.314a1.28,1.28,0,0,1-1.278-1.279v-5.967a1.278,1.278,0,0,0-1.278-1.278h-9.444a.995.995,0,0,1-.982-1.157l.434-2.637c9.432-.146,13.308-2.16,13.474-2.249a1.278,1.278,0,1,0-1.207-2.253c-.034.018-3.373,1.749-11.845,1.937l.5-3.056h2.551a1.278,1.278,0,1,0,0-2.556h-7.651a1,1,0,0,1-.995-.995V807.351a21.024,21.024,0,0,1,.775-5.647h4.812v2.186a3.774,3.774,0,0,0,2.367,3.542,3.893,3.893,0,0,0,1.491.3,3.781,3.781,0,0,0,2.687-1.133l11.921-11.922a3.837,3.837,0,0,0,0-5.421l-3.037-3.038.118,0a20.9,20.9,0,0,1,9.184,2.1,10.822,10.822,0,1,0,.754-2.472,23.675,23.675,0,0,0-12.475-2.043l-6.464-6.464a3.769,3.769,0,0,0-3.99-.9v-2.684a3.839,3.839,0,0,0-3.834-3.834H598.99v-2.185a3.834,3.834,0,0,0-6.545-2.711l-11.921,11.921a3.835,3.835,0,0,0,0,5.422l1.351,1.352a23.751,23.751,0,0,0-8.37,2.128,10.815,10.815,0,1,0-12.778,14.787Zm99.835-18.685a8.261,8.261,0,1,1-8.261,8.261,8.271,8.271,0,0,1,8.261-8.261Zm-78.232-3.2,11.922-11.922a1.214,1.214,0,0,1,.88-.378,1.364,1.364,0,0,1,.512.1,1.252,1.252,0,0,1,.789,1.18V771.2a1.279,1.279,0,0,0,1.278,1.278H623.9a1.28,1.28,0,0,1,1.279,1.278v11.8a1.28,1.28,0,0,1-1.279,1.278H597.711a1.279,1.279,0,0,0-1.278,1.278v3.464a1.278,1.278,0,0,1-2.181.9l-11.922-11.922a1.28,1.28,0,0,1,0-1.807Zm1.113,7.469c.319,0,.638.01.957.023l8.044,8.044a3.779,3.779,0,0,0,2.687,1.133,3.893,3.893,0,0,0,1.492-.3,3.768,3.768,0,0,0,2.164-2.3,21.092,21.092,0,0,1,5.79,14.532v10.543a1,1,0,0,1-1,1H595.93a1.278,1.278,0,0,0,0,2.556h2.552l.5,3.056c-8.329-.19-11.783-1.906-11.852-1.941a1.278,1.278,0,0,0-1.2,2.258c.166.089,4.041,2.1,13.473,2.248l.434,2.638a1,1,0,0,1-.982,1.157h-9.444a1.277,1.277,0,0,0-1.278,1.278v5.967a1.28,1.28,0,0,1-1.279,1.279h-23.27a1.28,1.28,0,0,1-1.279-1.279V807.352a21.083,21.083,0,0,1,.967-6.336c.111,0,.223.009.334.009a10.8,10.8,0,0,0,10.648-12.709,21.206,21.206,0,0,1,9.185-2.1Zm-19.833-4.273a8.261,8.261,0,1,1-8.26,8.261A8.271,8.271,0,0,1,563.611,781.946Z" transform="translate(-552.794 -763.888)"/></g></g></svg>